<svg width="100" height="100" viewBox="0 0 100 100" fill="none" xmlns="http://www.w3.org/2000/svg">
<path d="M38.75 93.75C30.465 93.75 23.75 87.035 23.75 78.75C23.75 70.465 30.465 63.75 38.75 63.75H53.75V78.75C53.75 87.035 47.035 93.75 38.75 93.75Z" fill="#BAE0BD"/>
<path d="M70 66.25C77.5939 66.25 83.75 60.0939 83.75 52.5C83.75 44.9061 77.5939 38.75 70 38.75C62.4061 38.75 56.25 44.9061 56.25 52.5C56.25 60.0939 62.4061 66.25 70 66.25Z" fill="#C2FBFF"/>
<path d="M68.4375 36.5625C76.3775 36.5625 83.75 31.065 83.75 23.125C83.75 15.185 77.315 8.75 69.375 8.75H53.75V36.25L68.4375 36.5625Z" fill="#F78FAE"/>
<path d="M38.75 93.75C30.465 93.75 23.75 87.035 23.75 78.75C23.75 70.465 30.465 63.75 38.75 63.75H53.75V78.75C53.75 87.035 47.035 93.75 38.75 93.75Z" stroke="#5E9C76" stroke-width="2.5" stroke-miterlimit="10" stroke-linecap="round" stroke-linejoin="round"/>
<path d="M70 66.25C77.5939 66.25 83.75 60.0939 83.75 52.5C83.75 44.9061 77.5939 38.75 70 38.75C62.4061 38.75 56.25 44.9061 56.25 52.5C56.25 60.0939 62.4061 66.25 70 66.25Z" stroke="#689DBA" stroke-width="2.5" stroke-miterlimit="10" stroke-linecap="round" stroke-linejoin="round"/>
<path d="M70 36.25C77.5 36.25 83.75 30 83.75 23.125C83.75 15.185 77.315 8.75 69.375 8.75H53.75V36.25H70Z" stroke="#C7435B" stroke-width="2.5" stroke-miterlimit="10" stroke-linecap="round" stroke-linejoin="round"/>
<path d="M39.0625 35.9375C31.1225 35.9375 23.75 41.435 23.75 49.375C23.75 57.315 30.185 63.75 38.125 63.75H53.75V36.25L39.0625 35.9375Z" fill="#BDC9F2"/>
<path d="M37.5 36.25C30 36.25 23.75 42.5 23.75 49.375C23.75 57.315 30.185 63.75 38.125 63.75H53.75V36.25H37.5Z" stroke="#7575A1" stroke-width="2.5" stroke-miterlimit="10" stroke-linecap="round" stroke-linejoin="round"/>
<path d="M39.0625 8.4375C31.1225 8.4375 23.75 13.935 23.75 21.875C23.75 29.815 30.185 36.25 38.125 36.25H53.75V8.75L39.0625 8.4375Z" fill="#F78F8F"/>
<path d="M37.5 8.75C30 8.75 23.75 15 23.75 21.875C23.75 29.815 30.185 36.25 38.125 36.25H53.75V8.75H37.5Z" stroke="#C74343" stroke-width="2.5" stroke-miterlimit="10" stroke-linecap="round" stroke-linejoin="round"/>
</svg>
