<svg width="100" height="100" viewBox="0 0 100 100" fill="none" xmlns="http://www.w3.org/2000/svg">
<path d="M49.2709 51.8706C47.1918 48.5186 45.6834 45.7394 43.5938 40.5061C40.0605 31.6665 65.0834 23.679 54.9376 8.33105C59.3355 18.9331 39.1522 25.4873 37.2772 34.3165C35.5626 42.4373 49.2605 51.8706 49.2709 51.8706Z" fill="#D43A02"/>
<path d="M49.7457 35.979C49.3457 41.2206 54.3895 44.0144 54.5353 47.8436C54.652 50.9602 51.5207 53.5581 51.5207 53.5581C51.5207 53.5581 57.2041 52.4415 58.977 47.6873C60.9457 42.4081 55.1561 38.7936 55.752 34.5665C56.3082 30.529 68.3166 23.0186 68.3166 23.0186C68.3166 23.0186 50.6478 24.1894 49.7457 35.979Z" fill="#D43A02"/>
<path d="M66.8417 52.1981C70.4958 51.3773 73.5771 53.7043 73.5771 56.3856C73.5771 62.4293 65.2 68.1418 65.2 68.1418C65.2 68.1418 78.1688 66.596 78.1688 56.6731C78.1688 50.1106 71.8 48.471 66.8417 52.1981ZM60.6854 57.0731C60.6854 57.0731 64.7292 54.1918 65.8063 53.1106C55.8833 55.2168 33.2271 55.5002 33.2271 53.671C33.2271 51.9856 40.5333 50.2585 40.5333 50.2585C40.5333 50.2585 24.3396 50.0252 24.3396 54.8023C24.3396 59.7814 45.5375 60.1377 60.6854 57.0731Z" fill="url(#paint0_linear_733_22)"/>
<path d="M58.1978 61.6063C48.8041 64.7293 31.502 63.7313 36.627 59.5376C34.1312 59.5376 30.4312 61.5438 30.4312 63.473C30.4312 67.3418 49.1437 70.3293 62.9936 64.6647L58.1978 61.6063Z" fill="url(#paint1_linear_733_22)"/>
<path d="M38.9293 68.2061C35.5209 68.2061 33.3147 70.4019 33.3147 72.0019C33.3147 76.9831 53.648 77.4852 61.7043 72.429L56.5834 69.029C50.5647 71.6748 35.4459 72.0394 38.9293 68.2061Z" fill="url(#paint2_linear_733_22)"/>
<path d="M75.5854 76.3165C75.5854 74.3665 73.3875 73.4477 72.6 73.0081C77.2417 84.2019 26.1063 83.3331 26.1063 76.7248C26.1063 75.2227 29.8708 73.7519 33.35 74.4477L30.3917 72.6998C23.4583 71.6123 18.75 74.6602 18.75 77.1186C18.75 88.5831 75.5854 88.0311 75.5854 76.3165Z" fill="url(#paint3_linear_733_22)"/>
<path d="M81.2499 80.4248C72.6124 88.9561 50.7103 92.0644 28.6853 86.7936C50.7103 96.1748 81.1457 90.8915 81.2499 80.4248Z" fill="url(#paint4_linear_733_22)"/>
<defs>
<linearGradient id="paint0_linear_733_22" x1="47.2438" y1="44.1127" x2="64.0354" y2="90.246" gradientUnits="userSpaceOnUse">
<stop stop-color="#5C65D6"/>
<stop offset="0.999" stop-color="#464EB0"/>
</linearGradient>
<linearGradient id="paint1_linear_733_22" x1="40.6207" y1="47.4376" x2="56.8666" y2="92.0751" gradientUnits="userSpaceOnUse">
<stop stop-color="#5C65D6"/>
<stop offset="0.999" stop-color="#464EB0"/>
</linearGradient>
<linearGradient id="paint2_linear_733_22" x1="38.9543" y1="48.8644" x2="55.396" y2="94.0415" gradientUnits="userSpaceOnUse">
<stop stop-color="#5C65D6"/>
<stop offset="0.999" stop-color="#464EB0"/>
</linearGradient>
<linearGradient id="paint3_linear_733_22" x1="37.5625" y1="50.4123" x2="53.8771" y2="95.2331" gradientUnits="userSpaceOnUse">
<stop stop-color="#5C65D6"/>
<stop offset="0.999" stop-color="#464EB0"/>
</linearGradient>
<linearGradient id="paint4_linear_733_22" x1="43.177" y1="51.2123" x2="58.8082" y2="94.1602" gradientUnits="userSpaceOnUse">
<stop stop-color="#5C65D6"/>
<stop offset="0.999" stop-color="#464EB0"/>
</linearGradient>
</defs>
</svg>
