<svg width="253" height="55" viewBox="0 0 253 55" fill="none" xmlns="http://www.w3.org/2000/svg">
<path d="M80.6367 32.9707L85.9629 13.4062H92.8711L84.2402 39H79.7754L80.6367 32.9707ZM75.8027 13.4062L81.1289 32.9707L82.0254 39H77.5078L68.9297 13.4062H75.8027ZM100.729 19.9805V39H94.7871V19.9805H100.729ZM94.4355 15.0762C94.4355 14.2324 94.7402 13.541 95.3496 13.002C95.959 12.4629 96.75 12.1934 97.7227 12.1934C98.6953 12.1934 99.4863 12.4629 100.096 13.002C100.705 13.541 101.01 14.2324 101.01 15.0762C101.01 15.9199 100.705 16.6113 100.096 17.1504C99.4863 17.6895 98.6953 17.959 97.7227 17.959C96.75 17.959 95.959 17.6895 95.3496 17.1504C94.7402 16.6113 94.4355 15.9199 94.4355 15.0762ZM104.824 19.9805H110.766V39.6152C110.766 41.1387 110.473 42.4219 109.887 43.4648C109.301 44.5195 108.463 45.3164 107.373 45.8555C106.283 46.4062 104.982 46.6816 103.471 46.6816C102.967 46.6816 102.504 46.6582 102.082 46.6113C101.648 46.5762 101.174 46.5 100.658 46.3828V41.9004C100.963 41.9473 101.244 41.9824 101.502 42.0059C101.76 42.041 102.041 42.0586 102.346 42.0586C102.885 42.0586 103.336 41.9707 103.699 41.7949C104.062 41.6191 104.338 41.3496 104.525 40.9863C104.725 40.623 104.824 40.166 104.824 39.6152V19.9805ZM104.385 15.0762C104.385 14.2324 104.689 13.541 105.299 13.002C105.908 12.4629 106.699 12.1934 107.672 12.1934C108.645 12.1934 109.436 12.4629 110.045 13.002C110.654 13.541 110.959 14.2324 110.959 15.0762C110.959 15.9199 110.654 16.6113 110.045 17.1504C109.436 17.6895 108.645 17.959 107.672 17.959C106.699 17.959 105.908 17.6895 105.299 17.1504C104.689 16.6113 104.385 15.9199 104.385 15.0762ZM124.002 34.2188V26.3789C124.002 25.8398 123.926 25.377 123.773 24.9902C123.621 24.6035 123.381 24.3047 123.053 24.0938C122.725 23.8711 122.285 23.7598 121.734 23.7598C121.289 23.7598 120.908 23.8359 120.592 23.9883C120.275 24.1406 120.035 24.3691 119.871 24.6738C119.707 24.9785 119.625 25.3652 119.625 25.834H113.701C113.701 24.9551 113.895 24.1406 114.281 23.3906C114.68 22.6289 115.242 21.9668 115.969 21.4043C116.707 20.8418 117.586 20.4082 118.605 20.1035C119.637 19.7871 120.785 19.6289 122.051 19.6289C123.562 19.6289 124.91 19.8809 126.094 20.3848C127.289 20.8887 128.232 21.6445 128.924 22.6523C129.615 23.6484 129.961 24.9023 129.961 26.4141V34.2012C129.961 35.4434 130.031 36.3867 130.172 37.0312C130.312 37.6641 130.512 38.2207 130.77 38.7012V39H124.828C124.547 38.4141 124.336 37.6992 124.195 36.8555C124.066 36 124.002 35.1211 124.002 34.2188ZM124.723 27.3809L124.758 30.5449H122.139C121.588 30.5449 121.119 30.6211 120.732 30.7734C120.357 30.9258 120.053 31.1367 119.818 31.4062C119.596 31.6641 119.432 31.957 119.326 32.2852C119.232 32.6133 119.186 32.959 119.186 33.3223C119.186 33.6738 119.268 33.9902 119.432 34.2715C119.607 34.541 119.842 34.752 120.135 34.9043C120.428 35.0566 120.756 35.1328 121.119 35.1328C121.775 35.1328 122.332 35.0098 122.789 34.7637C123.258 34.5059 123.615 34.1953 123.861 33.832C124.107 33.4688 124.23 33.1289 124.23 32.8125L125.531 35.2383C125.297 35.707 125.027 36.1816 124.723 36.6621C124.43 37.1426 124.061 37.5879 123.615 37.998C123.182 38.3965 122.648 38.7246 122.016 38.9824C121.383 39.2285 120.615 39.3516 119.713 39.3516C118.541 39.3516 117.463 39.1113 116.479 38.6309C115.506 38.1504 114.727 37.4824 114.141 36.627C113.555 35.7598 113.262 34.7637 113.262 33.6387C113.262 32.6543 113.438 31.7754 113.789 31.002C114.152 30.2285 114.697 29.5723 115.424 29.0332C116.15 28.4941 117.076 28.084 118.201 27.8027C119.326 27.5215 120.65 27.3809 122.174 27.3809H124.723ZM138.803 36.7676L143.725 19.9805H150.088L142.441 41.8301C142.277 42.3105 142.061 42.8262 141.791 43.377C141.521 43.9395 141.152 44.4727 140.684 44.9766C140.215 45.4805 139.611 45.8906 138.873 46.207C138.146 46.5234 137.244 46.6816 136.166 46.6816C135.592 46.6816 135.17 46.6523 134.9 46.5938C134.643 46.5469 134.244 46.459 133.705 46.3301V42.0938C133.857 42.0938 133.986 42.0938 134.092 42.0938C134.209 42.0938 134.338 42.0938 134.479 42.0938C135.111 42.0938 135.615 42.0293 135.99 41.9004C136.377 41.7715 136.67 41.584 136.869 41.3379C137.08 41.0918 137.244 40.793 137.361 40.4414L138.803 36.7676ZM137.555 19.9805L141.299 33.2871L141.949 39.5625H137.977L131.209 19.9805H137.555ZM174.064 32.1973C174.064 31.7988 174.006 31.4414 173.889 31.125C173.771 30.7969 173.555 30.4922 173.238 30.2109C172.922 29.9297 172.465 29.6484 171.867 29.3672C171.281 29.0742 170.508 28.7695 169.547 28.4531C168.422 28.0781 167.338 27.6562 166.295 27.1875C165.252 26.707 164.32 26.1504 163.5 25.5176C162.68 24.873 162.029 24.123 161.549 23.2676C161.068 22.4004 160.828 21.3926 160.828 20.2441C160.828 19.1426 161.074 18.1523 161.566 17.2734C162.059 16.3828 162.744 15.627 163.623 15.0059C164.514 14.373 165.557 13.8926 166.752 13.5645C167.947 13.2246 169.254 13.0547 170.672 13.0547C172.547 13.0547 174.199 13.3828 175.629 14.0391C177.07 14.6836 178.195 15.6035 179.004 16.7988C179.824 17.9824 180.234 19.3828 180.234 21H174.1C174.1 20.3555 173.965 19.7871 173.695 19.2949C173.438 18.8027 173.045 18.416 172.518 18.1348C171.99 17.8535 171.328 17.7129 170.531 17.7129C169.758 17.7129 169.107 17.8301 168.58 18.0645C168.053 18.2988 167.654 18.6152 167.385 19.0137C167.115 19.4004 166.98 19.8281 166.98 20.2969C166.98 20.6836 167.086 21.0352 167.297 21.3516C167.52 21.6562 167.83 21.9434 168.229 22.2129C168.639 22.4824 169.131 22.7402 169.705 22.9863C170.291 23.2324 170.947 23.4727 171.674 23.707C173.033 24.1406 174.24 24.627 175.295 25.166C176.361 25.6934 177.258 26.2969 177.984 26.9766C178.723 27.6445 179.279 28.4062 179.654 29.2617C180.041 30.1172 180.234 31.084 180.234 32.1621C180.234 33.3105 180.012 34.3301 179.566 35.2207C179.121 36.1113 178.482 36.8672 177.65 37.4883C176.818 38.0977 175.822 38.5605 174.662 38.877C173.502 39.1934 172.207 39.3516 170.777 39.3516C169.465 39.3516 168.17 39.1875 166.893 38.8594C165.627 38.5195 164.479 38.0039 163.447 37.3125C162.416 36.6094 161.59 35.7129 160.969 34.623C160.359 33.5215 160.055 32.2148 160.055 30.7031H166.242C166.242 31.4531 166.342 32.0859 166.541 32.6016C166.74 33.1172 167.033 33.5332 167.42 33.8496C167.807 34.1543 168.281 34.377 168.844 34.5176C169.406 34.6465 170.051 34.7109 170.777 34.7109C171.562 34.7109 172.195 34.5996 172.676 34.377C173.156 34.1426 173.508 33.8379 173.73 33.4629C173.953 33.0762 174.064 32.6543 174.064 32.1973ZM189.393 19.9805V39H183.451V19.9805H189.393ZM183.1 15.0762C183.1 14.2324 183.404 13.541 184.014 13.002C184.623 12.4629 185.414 12.1934 186.387 12.1934C187.359 12.1934 188.15 12.4629 188.76 13.002C189.369 13.541 189.674 14.2324 189.674 15.0762C189.674 15.9199 189.369 16.6113 188.76 17.1504C188.15 17.6895 187.359 17.959 186.387 17.959C185.414 17.959 184.623 17.6895 184.014 17.1504C183.404 16.6113 183.1 15.9199 183.1 15.0762ZM198.867 24.041V39H192.943V19.9805H198.498L198.867 24.041ZM198.164 28.8398L196.775 28.875C196.775 27.4219 196.951 26.127 197.303 24.9902C197.654 23.8418 198.152 22.8691 198.797 22.0723C199.441 21.2754 200.209 20.6719 201.1 20.2617C202.002 19.8398 203.004 19.6289 204.105 19.6289C204.984 19.6289 205.787 19.7578 206.514 20.0156C207.252 20.2734 207.885 20.6895 208.412 21.2637C208.951 21.8379 209.361 22.5996 209.643 23.5488C209.936 24.4863 210.082 25.6465 210.082 27.0293V39H204.123V27.0117C204.123 26.25 204.018 25.6699 203.807 25.2715C203.596 24.8613 203.291 24.5801 202.893 24.4277C202.494 24.2754 202.008 24.1992 201.434 24.1992C200.824 24.1992 200.309 24.3164 199.887 24.5508C199.465 24.7852 199.125 25.1133 198.867 25.5352C198.621 25.9453 198.439 26.4316 198.322 26.9941C198.217 27.5566 198.164 28.1719 198.164 28.8398ZM225.322 19.9805H230.701V38.2617C230.701 40.0195 230.297 41.5078 229.488 42.7266C228.68 43.957 227.549 44.8887 226.096 45.5215C224.654 46.166 222.967 46.4883 221.033 46.4883C220.178 46.4883 219.305 46.377 218.414 46.1543C217.523 45.9434 216.691 45.627 215.918 45.2051C215.145 44.7832 214.494 44.2617 213.967 43.6406L216.445 40.1602C216.926 40.6992 217.529 41.1562 218.256 41.5312C218.982 41.918 219.838 42.1113 220.822 42.1113C221.678 42.1113 222.393 41.959 222.967 41.6543C223.553 41.3496 223.998 40.9043 224.303 40.3184C224.607 39.7441 224.76 39.0469 224.76 38.2266V24.4805L225.322 19.9805ZM212.684 29.7188V29.3496C212.684 27.9082 212.859 26.5957 213.211 25.4121C213.574 24.2168 214.09 23.1914 214.758 22.3359C215.438 21.4688 216.258 20.8008 217.219 20.332C218.18 19.8633 219.264 19.6289 220.471 19.6289C221.771 19.6289 222.838 19.8809 223.67 20.3848C224.514 20.877 225.188 21.5684 225.691 22.459C226.207 23.3496 226.605 24.3926 226.887 25.5879C227.18 26.7715 227.426 28.0488 227.625 29.4199V29.8594C227.426 31.1484 227.15 32.3672 226.799 33.5156C226.459 34.6523 226.014 35.6602 225.463 36.5391C224.912 37.418 224.221 38.1094 223.389 38.6133C222.568 39.1055 221.584 39.3516 220.436 39.3516C219.24 39.3516 218.162 39.1113 217.201 38.6309C216.252 38.1504 215.438 37.4766 214.758 36.6094C214.09 35.7422 213.574 34.7227 213.211 33.5508C212.859 32.3789 212.684 31.1016 212.684 29.7188ZM218.607 29.3496V29.7188C218.607 30.4336 218.672 31.0957 218.801 31.7051C218.941 32.3145 219.152 32.8535 219.434 33.3223C219.715 33.7793 220.061 34.1367 220.471 34.3945C220.893 34.6523 221.385 34.7812 221.947 34.7812C222.803 34.7812 223.494 34.5996 224.021 34.2363C224.549 33.873 224.93 33.3574 225.164 32.6895C225.398 32.0215 225.498 31.2363 225.463 30.334V28.9453C225.486 28.1719 225.434 27.4922 225.305 26.9062C225.176 26.3086 224.971 25.8105 224.689 25.4121C224.42 25.0137 224.057 24.7148 223.6 24.5156C223.154 24.3047 222.615 24.1992 221.982 24.1992C221.432 24.1992 220.945 24.3281 220.523 24.5859C220.102 24.8438 219.75 25.207 219.469 25.6758C219.188 26.1328 218.971 26.6777 218.818 27.3105C218.678 27.9316 218.607 28.6113 218.607 29.3496ZM239.912 12V39H233.988V12H239.912ZM239.209 28.8398L237.82 28.875C237.82 27.5391 237.984 26.3086 238.312 25.1836C238.641 24.0586 239.109 23.0801 239.719 22.248C240.328 21.416 241.061 20.7715 241.916 20.3145C242.771 19.8574 243.721 19.6289 244.764 19.6289C245.701 19.6289 246.557 19.7637 247.33 20.0332C248.115 20.3027 248.789 20.7363 249.352 21.334C249.926 21.9316 250.365 22.7109 250.67 23.6719C250.986 24.6328 251.145 25.8047 251.145 27.1875V39H245.186V27.1523C245.186 26.3789 245.074 25.7812 244.852 25.3594C244.641 24.9258 244.336 24.627 243.938 24.4629C243.539 24.2871 243.053 24.1992 242.479 24.1992C241.787 24.1992 241.225 24.3164 240.791 24.5508C240.357 24.7852 240.023 25.1133 239.789 25.5352C239.566 25.9453 239.414 26.4316 239.332 26.9941C239.25 27.5566 239.209 28.1719 239.209 28.8398Z" fill="#445964"/>
<path d="M45.6238 10.5052L29.4558 1.1809C26.7256 -0.393688 23.3331 -0.39358 20.6028 1.1809L4.43491 10.5052C1.69931 12.0827 0 15.0247 0 18.1829V36.817C0 39.9752 1.69931 42.9172 4.4348 44.4947L20.6028 53.819C23.3335 55.3939 26.7259 55.3934 29.4558 53.819L45.6237 44.4947C48.3593 42.9172 50.0586 39.9752 50.0586 36.817V18.1829C50.0586 15.0248 48.3593 12.0828 45.6238 10.5052ZM45.7617 36.817C45.7617 38.4438 44.8864 39.9592 43.4773 40.7718L27.3093 50.0961C25.9029 50.9073 24.1556 50.9073 22.7492 50.0961L6.5812 40.7718C5.17215 39.9591 4.29688 38.4438 4.29688 36.817V18.1829C4.29688 16.5562 5.17215 15.0408 6.58131 14.2283L22.7492 4.90393C24.1557 4.09268 25.9035 4.093 27.3094 4.90393L43.4774 14.2281C44.8864 15.0408 45.7617 16.5561 45.7617 18.1829V36.817Z" fill="#445964"/>
<path d="M22.9876 25.8596L15.0082 19.1067C14.1025 18.3401 12.7468 18.453 11.9803 19.359C11.2139 20.265 11.3269 21.6208 12.2326 22.3874L18.2738 27.5L12.2326 32.6125C11.3269 33.3791 11.214 34.7349 11.9803 35.6409C12.7486 36.5488 14.1047 36.6578 15.0082 35.8931L22.9876 29.1402C24.0028 28.2812 23.9999 26.7163 22.9876 25.8596Z" fill="#445964"/>
<path d="M36.4382 32.104H26.7708C25.5842 32.104 24.6223 33.066 24.6223 34.2528C24.6223 35.4396 25.5842 36.4015 26.7708 36.4015H36.4382C37.6247 36.4015 38.5866 35.4396 38.5866 34.2528C38.5866 33.066 37.6248 32.104 36.4382 32.104Z" fill="#445964"/>
</svg>
