<svg width="100" height="100" viewBox="0 0 100 100" fill="none" xmlns="http://www.w3.org/2000/svg">
<path d="M87.5 36.0418C87.5 78.7502 50 91.6668 50 91.6668C50 91.6668 12.5 78.7502 12.5 36.0418C12.5 30.8335 12.9167 26.4585 13.3333 22.9168C13.9583 17.7085 17.5 13.5418 22.5 12.2918C28.9583 10.4168 39.1667 8.3335 50 8.3335C60.8333 8.3335 71.0417 10.4168 77.7083 12.2918C82.7083 13.5418 86.25 17.9168 86.875 22.9168C87.0833 26.4585 87.5 31.0418 87.5 36.0418Z" fill="#5D4037"/>
<path d="M50 14.5835C60.2083 14.5835 69.7917 16.6668 76.0417 18.3335C78.5417 18.9585 80.2083 21.0418 80.625 23.7502C81.0417 27.7085 81.25 31.8752 81.25 36.0418C81.25 68.5418 57.2917 81.6668 50 84.7918C42.7083 81.4585 18.75 68.3335 18.75 36.0418C18.75 31.8752 18.9583 27.7085 19.375 23.7502C19.5833 21.0418 21.4583 18.9585 23.9583 18.3335C30.2083 16.6668 39.7917 14.5835 50 14.5835ZM50 8.3335C39.1667 8.3335 28.9583 10.4168 22.2917 12.2918C17.5 13.5418 13.75 17.9168 13.3333 22.9168C12.9167 26.4585 12.5 31.0418 12.5 36.0418C12.5 78.7502 50 91.6668 50 91.6668C50 91.6668 87.5 78.7502 87.5 36.0418C87.5 30.8335 87.0833 26.4585 86.6667 22.9168C86.0417 17.7085 82.5 13.5418 77.5 12.2918C71.0417 10.4168 60.8333 8.3335 50 8.3335Z" fill="#4CAF50"/>
<path d="M47.9167 58.3335H52.0834V75.0002H47.9167V58.3335Z" fill="#DCEDC8"/>
<path d="M50 20.8335C50 20.8335 37.5 31.2502 37.5 47.9168C37.5 58.7502 44.375 65.6252 47.9167 68.7502L50 62.5002L52.0833 68.7502C55.625 65.6252 62.5 58.7502 62.5 47.9168C62.5 31.2502 50 20.8335 50 20.8335Z" fill="#4CAF50"/>
<path d="M50 20.8335C50 20.8335 37.5 31.2502 37.5 47.9168C37.5 58.7502 44.375 65.6252 47.9167 68.7502L50 62.5002V20.8335Z" fill="#81C784"/>
</svg>
