<svg width="100" height="100" viewBox="0 0 100 100" fill="none" xmlns="http://www.w3.org/2000/svg">
<path d="M50.0147 94.6228C48.8188 94.6228 47.6334 94.3103 46.5855 93.7062L35.6688 87.2416C34.0376 86.3291 34.8334 86.0062 35.3709 85.8208C37.5459 85.0603 37.9855 84.8874 40.3063 83.5687C40.5501 83.4291 40.8688 83.4791 41.1188 83.627L49.5063 88.6041C49.8084 88.7687 50.2397 88.7687 50.5188 88.6041L83.2209 69.727C83.523 69.5541 83.7209 69.2041 83.7209 68.8437V31.1083C83.7209 30.7312 83.5251 30.3958 83.2147 30.2083L50.5272 11.3458C50.2251 11.1666 49.823 11.1666 49.5209 11.3458L16.8376 30.2062C16.5209 30.3854 16.3188 30.7374 16.3188 31.0979V68.8354C16.3188 69.1958 16.5147 69.5395 16.8272 69.7103L25.7834 74.8833C30.6459 77.3145 33.6167 74.4499 33.6167 71.5687V34.3249C33.6167 33.7937 34.0334 33.3833 34.5667 33.3833H38.7084C39.2251 33.3833 39.6501 33.7916 39.6501 34.3249V71.5874C39.6501 78.0708 36.1147 81.7958 29.9667 81.7958C28.0751 81.7958 26.5855 81.7958 22.4272 79.7499L13.848 74.8062C11.7272 73.577 10.4167 71.2833 10.4167 68.8374V31.0999C10.4167 28.6437 11.7272 26.352 13.8459 25.1395L46.5834 6.2541C48.6542 5.08327 51.4042 5.08327 53.4605 6.2541L86.1563 25.1479C88.2647 26.3666 89.5834 28.652 89.5834 31.1083V68.8458C89.5834 71.2937 88.2647 73.577 86.1542 74.8062L53.4584 93.6895C52.4105 94.2958 51.223 94.6062 50.0126 94.6062" fill="#21A366"/>
<path d="M60.1167 68.6185C45.8084 68.6185 42.8083 62.0498 42.8083 56.5414C42.8083 56.0185 43.2313 55.5998 43.7563 55.5998H47.9813C48.4479 55.5998 48.8417 55.9394 48.9146 56.3998C49.5521 60.7039 51.4521 62.8748 60.1042 62.8748C66.9958 62.8748 69.9271 61.3185 69.9271 57.6623C69.9271 55.5581 69.0917 53.9956 58.3854 52.9477C49.4292 52.0644 43.8958 50.0914 43.8958 42.9289C43.8958 36.331 49.4625 32.4019 58.7854 32.4019C69.2563 32.4019 74.4458 36.0373 75.1 43.8456C75.125 44.1164 75.0271 44.3769 74.8458 44.5748C74.6667 44.7623 74.4125 44.8769 74.15 44.8769H69.9021C69.4604 44.8769 69.075 44.5664 68.9854 44.1394C67.9625 39.6123 65.4896 38.1644 58.7688 38.1644C51.2458 38.1644 50.3708 40.7831 50.3708 42.7477C50.3708 45.1289 51.4021 45.8248 61.5521 47.1685C71.6042 48.5019 76.3771 50.3852 76.3771 57.4498C76.3771 64.5706 70.4333 68.656 60.0708 68.656" fill="#21A366"/>
</svg>
