<svg width="100" height="100" viewBox="0 0 100 100" fill="none" xmlns="http://www.w3.org/2000/svg">
<path d="M50 60.9375C55.1777 60.9375 59.375 56.7402 59.375 51.5625C59.375 46.3848 55.1777 42.1875 50 42.1875C44.8223 42.1875 40.625 46.3848 40.625 51.5625C40.625 56.7402 44.8223 60.9375 50 60.9375Z" fill="#ED7899"/>
<path d="M50 62.5C43.9703 62.5 39.0625 57.5922 39.0625 51.5625C39.0625 45.5328 43.9703 40.625 50 40.625C56.0297 40.625 60.9375 45.5328 60.9375 51.5625C60.9375 57.5922 56.0297 62.5 50 62.5ZM50 43.75C45.6922 43.75 42.1875 47.2547 42.1875 51.5625C42.1875 55.8703 45.6922 59.375 50 59.375C54.3078 59.375 57.8125 55.8703 57.8125 51.5625C57.8125 47.2547 54.3078 43.75 50 43.75Z" fill="#8D6C9F"/>
<path d="M50 71.875C23.7156 71.875 3.125 62.9531 3.125 51.5625C3.125 40.1719 23.7156 31.25 50 31.25C76.2844 31.25 96.875 40.1719 96.875 51.5625C96.875 62.9531 76.2844 71.875 50 71.875ZM50 34.375C26.2844 34.375 6.25 42.2453 6.25 51.5625C6.25 60.8797 26.2844 68.75 50 68.75C73.7156 68.75 93.75 60.8797 93.75 51.5625C93.75 42.2453 73.7156 34.375 50 34.375Z" fill="#8D6C9F"/>
<path d="M31.7438 93.4799C29.8344 93.4799 28.0954 93.0424 26.5625 92.1564C21.6422 89.3158 19.6485 82.3267 20.9485 72.4752C22.1875 63.0939 26.2563 52.0611 32.4079 41.4049C38.561 30.7502 46.0829 21.708 53.5875 15.9439C61.4704 9.89394 68.5204 8.12831 73.4375 10.9689C78.3579 13.8096 80.3516 20.7986 79.0516 30.6502C77.8125 40.0299 73.7422 51.0643 67.5922 61.7189C61.4391 72.3736 53.9172 81.4158 46.4125 87.1799C40.9875 91.3439 35.9579 93.4799 31.7438 93.4799ZM68.2563 12.7799C64.7657 12.7799 60.3204 14.7158 55.4907 18.4252C48.3032 23.9439 41.0688 32.6596 35.1157 42.9689C29.1641 53.2783 25.2344 63.9002 24.0469 72.8846C22.9391 81.2768 24.4266 87.3127 28.125 89.4502C31.8235 91.5877 37.7922 89.8564 44.5094 84.7002C51.6969 79.1814 58.9313 70.4658 64.8844 60.1564C70.836 49.8471 74.7657 39.2252 75.9532 30.2408C77.061 21.8486 75.5735 15.8127 71.875 13.6752C70.8375 13.0752 69.6188 12.7799 68.2563 12.7799Z" fill="#8D6C9F"/>
<path d="M68.2563 93.4797C64.0438 93.4797 59.0125 91.3438 53.5875 87.1797C46.0829 81.4172 38.561 72.3735 32.4079 61.7188C26.2563 51.0641 22.1875 40.0297 20.9485 30.6485C19.6485 20.7985 21.6422 13.8094 26.5625 10.9688C31.4844 8.13128 38.5329 9.89691 46.4125 15.9469C53.9172 21.7094 61.4391 30.7532 67.5922 41.4078C73.7438 52.0625 77.8125 63.0969 79.0516 72.4782C80.3516 82.3266 78.3579 89.3157 73.4375 92.1563C71.9047 93.0422 70.1625 93.4797 68.2563 93.4797ZM31.7438 12.7797C30.3797 12.7797 29.1641 13.075 28.125 13.675C24.4266 15.811 22.9391 21.8469 24.0469 30.2407C25.2344 39.225 29.1641 49.8485 35.1157 60.1563C41.0688 70.4657 48.3032 79.1813 55.4907 84.7C62.2063 89.8563 68.1766 91.586 71.875 89.45C75.5735 87.3141 77.061 81.2782 75.9532 72.8844C74.7657 63.9 70.836 53.2766 64.8844 42.9688C58.9313 32.6594 51.6969 23.9438 44.5094 18.425C39.6813 14.7172 35.236 12.7797 31.7438 12.7797Z" fill="#8D6C9F"/>
<path d="M16.3484 73.3936C16.2796 73.3936 16.2109 73.3889 16.1406 73.3796L13.0437 72.9671C12.1874 72.853 11.5859 72.0686 11.7015 71.2124C11.814 70.3561 12.5952 69.7546 13.4562 69.8702L16.5531 70.2827C17.4093 70.3968 18.0109 71.1811 17.8952 72.0374C17.7921 72.8218 17.1202 73.3936 16.3484 73.3936Z" fill="#8D6C9F"/>
<path d="M12.8032 81.0703C11.9657 81.0703 11.272 80.4047 11.2439 79.5594C11.2142 78.6969 11.8892 77.975 12.7532 77.9469L15.8751 77.8422C16.736 77.7844 17.461 78.4875 17.4892 79.3516C17.5189 80.2141 16.8439 80.9359 15.9798 80.9641L12.8564 81.0688C12.8407 81.0703 12.822 81.0703 12.8032 81.0703Z" fill="#8D6C9F"/>
<path d="M14.0765 89.208C13.4062 89.208 12.7875 88.7752 12.5828 88.1017C12.3312 87.2767 12.7953 86.4033 13.6203 86.1517L16.6094 85.2392C17.4375 84.9799 18.3094 85.4517 18.5594 86.2767C18.8125 87.1017 18.3469 87.9752 17.5219 88.2267L14.5328 89.1392C14.3797 89.1861 14.2265 89.208 14.0765 89.208Z" fill="#8D6C9F"/>
<path d="M18.05 96.6439C17.6109 96.6439 17.1734 96.4595 16.864 96.0985C16.3031 95.4439 16.3765 94.4564 17.0312 93.8954L19.4031 91.8595C20.0562 91.3001 21.0422 91.372 21.6062 92.0267C22.1672 92.6814 22.0937 93.6689 21.439 94.2298L19.0672 96.2657C18.7734 96.5189 18.4109 96.6439 18.05 96.6439Z" fill="#8D6C9F"/>
<path d="M87.1422 29.247C87.111 29.247 87.0813 29.2454 87.0501 29.2438L83.9313 29.0641C83.0688 29.0157 82.411 28.2766 82.4626 27.4141C82.511 26.5532 83.2547 25.897 84.1126 25.9454L87.2313 26.1251C88.0938 26.1735 88.7516 26.9126 88.7001 27.7751C88.6516 28.6048 87.9626 29.247 87.1422 29.247Z" fill="#8D6C9F"/>
<path d="M83.7361 21.5577C82.9751 21.5577 82.3095 21.003 82.1923 20.2264C82.0642 19.3733 82.6532 18.5764 83.5064 18.4483L86.597 17.9843C87.4532 17.8718 88.247 18.4468 88.3751 19.2983C88.5032 20.1514 87.9142 20.9483 87.0611 21.0764L83.9704 21.5405C83.8907 21.5514 83.8126 21.5577 83.7361 21.5577Z" fill="#8D6C9F"/>
<path d="M81.586 14.5874C81.0235 14.5874 80.4798 14.2843 80.2001 13.7499C79.7985 12.9874 80.0954 12.0421 80.8595 11.6405L83.6266 10.1889C84.3891 9.78895 85.3345 10.0827 85.736 10.8483C86.1376 11.6108 85.8407 12.5561 85.0766 12.9577L82.3095 14.4093C82.0782 14.5296 81.8298 14.5874 81.586 14.5874Z" fill="#8D6C9F"/>
<path d="M76.9782 9.24825C76.6657 9.24825 76.3501 9.1545 76.0751 8.95919C75.372 8.45919 75.2064 7.48419 75.7064 6.7795L77.5157 4.23106C78.0157 3.52793 78.9892 3.36075 79.6954 3.86231C80.3985 4.36231 80.5642 5.33731 80.0642 6.042L78.2548 8.59043C77.9485 9.01856 77.4673 9.24825 76.9782 9.24825Z" fill="#8D6C9F"/>
</svg>
